<?xml version="1.0" encoding="UTF-8"?>
<svg version="1.1" xmlns="http://www.w3.org/2000/svg" width="500" height="500">
<path d="M0 0 C-0.3125 1.9375 -0.3125 1.9375 -1 4 C-1.99 4.33 -2.98 4.66 -4 5 C-4 5.66 -4 6.32 -4 7 C-5.4160599 7.79275148 -6.83287553 8.58415312 -8.25 9.375 C-9.03890625 9.81585938 -9.8278125 10.25671875 -10.640625 10.7109375 C-12.7394275 11.85763423 -14.85811919 12.93696321 -17 14 C-15.970903 17.157771 -14.89635225 20.29814326 -13.8125 23.4375 C-13.52052734 24.33533203 -13.22855469 25.23316406 -12.92773438 26.15820312 C-12.47817383 27.43920898 -12.47817383 27.43920898 -12.01953125 28.74609375 C-11.75245361 29.53685303 -11.48537598 30.3276123 -11.21020508 31.14233398 C-10.10586645 33.27856992 -10.10586645 33.27856992 -7.3737793 33.76586914 C-6.19875854 33.88176392 -6.19875854 33.88176392 -5 34 C-5 34.66 -5 35.32 -5 36 C-4.01 36 -3.02 36 -2 36 C0.61437258 39.92155886 0.21703011 43.44236768 0 48 C-0.33 48.99 -0.66 49.98 -1 51 C-0.67 51.99 -0.34 52.98 0 54 C0.66 54.33 1.32 54.66 2 55 C2 55.99 2 56.98 2 58 C2.66 58 3.32 58 4 58 C4 59.32 4 60.64 4 62 C4.99 62.33 5.98 62.66 7 63 C8.1875 66.0625 8.1875 66.0625 9 69 C9.66 69 10.32 69 11 69 C11 69.99 11 70.98 11 72 C12.010625 72.061875 13.02125 72.12375 14.0625 72.1875 C32.76685189 74.59989874 51.40167805 85.1998615 63.375 99.6484375 C75.41615135 117.07337286 77.69663087 136.56108394 74.76171875 157.10546875 C73.0560341 165.82632823 70.13782683 173.73052161 65 181 C65.60328125 180.566875 66.2065625 180.13375 66.828125 179.6875 C67.62734375 179.130625 68.4265625 178.57375 69.25 178 C70.03890625 177.443125 70.8278125 176.88625 71.640625 176.3125 C74 175 74 175 78 175 C77.67 188.2 77.34 201.4 77 215 C84.26 215 91.52 215 99 215 C97.04041124 218.91917751 94.71736522 221.86019238 91.875 225.125 C90.87000377 226.29463725 89.86610429 227.46521772 88.86328125 228.63671875 C88.37166504 229.21083496 87.88004883 229.78495117 87.37353516 230.37646484 C85.55488347 232.52613312 83.80480997 234.72568335 82.0625 236.9375 C79.7464721 239.87466636 77.37243013 242.74002163 74.91015625 245.5546875 C74.3680249 246.17609619 73.82589355 246.79750488 73.26733398 247.43774414 C72.19587664 248.66083333 71.11880059 249.87902974 70.03540039 251.09155273 C67.27337097 254.24654833 65.27078413 256.9197112 64 261 C66.04598079 262.30042553 66.04598079 262.30042553 68.6262207 261.28735352 C69.71507568 260.90506592 70.80393066 260.52277832 71.92578125 260.12890625 C73.11494141 259.71962891 74.30410156 259.31035156 75.52929688 258.88867188 C76.79067221 258.44749313 78.05173745 258.00542686 79.3125 257.5625 C81.76446647 256.7025868 84.21881942 255.84944093 86.67578125 255.00390625 C88.3141394 254.42878296 88.3141394 254.42878296 89.9855957 253.84204102 C93 253 93 253 98 253 C98 258.28 98 263.56 98 269 C99.93746094 269.54269531 101.87492187 270.08539063 103.87109375 270.64453125 C105.7412241 271.17984737 107.61133067 271.715251 109.48071289 272.25317383 C110.78217094 272.62518136 112.08491494 272.99271997 113.38891602 273.35571289 C115.26128578 273.87775437 117.12879043 274.4171478 118.99609375 274.95703125 C120.12200928 275.27647705 121.2479248 275.59592285 122.40795898 275.92504883 C123.26333252 276.27978271 124.11870605 276.6345166 125 277 C125.33 277.99 125.66 278.98 126 280 C125.52691406 280.40089844 125.05382812 280.80179687 124.56640625 281.21484375 C119.75530155 285.35070568 115.27260796 289.69635511 110.8828125 294.27734375 C109 296 109 296 107 296 C107 296.66 107 297.32 107 298 C106.01 298.66 105.02 299.32 104 300 C104.40828595 304.49114543 106.27082555 306.97156048 109.0390625 310.3515625 C109.35617187 310.89554687 109.67328125 311.43953125 110 312 C109.67 312.99 109.34 313.98 109 315 C101.21189536 316.43630539 93.42344375 317.87070808 85.63453865 319.30266571 C82.01806661 319.96760114 78.40171884 320.63319769 74.78564453 321.30029297 C71.29760496 321.9437434 67.80925285 322.58547308 64.3206749 323.22599792 C62.9880731 323.47098707 61.65558616 323.71660185 60.32321548 323.96284485 C58.46073429 324.30695139 56.59780895 324.64865138 54.73486328 324.99023438 C53.67341095 325.18564819 52.61195862 325.38106201 51.51834106 325.58239746 C49 326 49 326 47 326 C46.01 332.27 45.02 338.54 44 345 C40.19784966 344.04946242 39.07795849 343.51748405 36.2421875 341.12109375 C35.53868164 340.53312012 34.83517578 339.94514648 34.11035156 339.33935547 C33.37268555 338.71174316 32.63501953 338.08413086 31.875 337.4375 C30.34677414 336.15705067 28.81813017 334.8771002 27.2890625 333.59765625 C26.55204102 332.97777832 25.81501953 332.35790039 25.05566406 331.71923828 C21.09511239 328.40686241 17.04483712 325.20849862 13 322 C12.14535156 321.27554687 11.29070312 320.55109375 10.41015625 319.8046875 C7.65200261 317.73942497 6.36090725 317.61589631 3 318 C-0.49885865 323.92599483 -3.4212023 330.02048141 -6.29296875 336.26953125 C-9.91373472 344.03936001 -13.94074245 351.3888921 -18 359 C-62.88 358.67 -107.76 358.34 -154 358 C-154 355.69 -154 353.38 -154 351 C-152.74445313 350.85304688 -151.48890625 350.70609375 -150.1953125 350.5546875 C-139.62403109 349.1888125 -130.41200619 347.92031616 -122.87890625 339.6796875 C-120.85932414 336.79936873 -119.87592893 334.36446698 -118.875 331 C-118.40707031 329.4840625 -118.40707031 329.4840625 -117.9296875 327.9375 C-115.2574907 317.54789791 -114.47989095 306.74804933 -113.88671875 296.07421875 C-113.8447254 295.33432898 -113.80273205 294.5944392 -113.75946617 293.83212852 C-112.40228087 268.93195507 -112.73654522 243.96686576 -112.79940307 219.0385741 C-112.81275324 213.48479166 -112.81510294 207.93104873 -112.8144539 202.3772524 C-112.81383542 196.24767032 -112.81900908 190.11810737 -112.82724571 183.98853111 C-112.83037626 181.43302207 -112.83238625 178.87751135 -112.83313942 176.3220005 C-112.76152571 144.80745017 -112.76152571 144.80745017 -115.4375 113.4375 C-115.55931641 112.42494141 -115.68113281 111.41238281 -115.80664062 110.36914062 C-116.50963803 104.77794365 -117.50735501 99.43426163 -119 94 C-119.33 94.66 -119.66 95.32 -120 96 C-121.65391846 96.39171753 -123.32345271 96.72057545 -125 97 C-126.485 97.495 -126.485 97.495 -128 98 C-128.495 99.485 -128.495 99.485 -129 101 C-130.43260722 102.1327592 -131.86554349 103.26510686 -133.30078125 104.39453125 C-136.51118515 107.42780942 -138.70051516 111.25722149 -141 115 C-144.58515443 112.25251089 -145.54576667 108.2710939 -146.91796875 104.15625 C-147.18007645 103.39074829 -147.44218414 102.62524658 -147.7122345 101.83654785 C-148.26343898 100.22074368 -148.81035718 98.60347181 -149.35327148 96.98486328 C-150.18554346 94.50582782 -151.03205138 92.03200991 -151.88085938 89.55859375 C-152.41490917 87.98726667 -152.94814032 86.41566107 -153.48046875 84.84375 C-153.73354294 84.10306274 -153.98661713 83.36237549 -154.24736023 82.59924316 C-155.24416335 79.61264347 -156 77.17102146 -156 74 C-161.1693489 74.40556131 -161.1693489 74.40556131 -166 76 C-168.20395439 75.98231531 -170.40790265 75.963584 -172.61181641 75.94140625 C-180.31864319 76.07468471 -188.00830354 76.86871709 -195.6875 77.5 C-198.32999558 77.71592094 -200.97256735 77.93061902 -203.61543274 78.14196777 C-205.24959765 78.27275239 -206.88355751 78.40613536 -208.51725769 78.54260254 C-213.02928708 78.90490378 -217.47335192 79.0630212 -222 79 C-220.61452634 74.84357902 -217.69910802 73.49643965 -214.1875 71.1875 C-212.71285206 70.19633772 -211.23892594 69.2041009 -209.765625 68.2109375 C-208.98509766 67.68725586 -208.20457031 67.16357422 -207.40039062 66.62402344 C-203.37825665 63.90278308 -199.40975764 61.10581499 -195.4375 58.3125 C-189.96675464 54.47346484 -184.4906626 50.64254404 -179 46.83203125 C-177.9901001 46.13102295 -176.9802002 45.43001465 -175.93969727 44.70776367 C-174.0033924 43.36445906 -172.06642931 42.02210249 -170.12866211 40.6809082 C-164.43255983 36.72827128 -158.83740434 32.674478 -153.31469727 28.48193359 C-151 27 -151 27 -148 27 C-148 26.34 -148 25.68 -148 25 C-146.3203125 23.7109375 -146.3203125 23.7109375 -144.125 22.375 C-143.40570313 21.92898437 -142.68640625 21.48296875 -141.9453125 21.0234375 C-140 20 -140 20 -138 20 C-138 19.34 -138 18.68 -138 18 C-136.57421875 16.7109375 -136.57421875 16.7109375 -134.6875 15.375 C-133.76517578 14.70597656 -133.76517578 14.70597656 -132.82421875 14.0234375 C-131 13 -131 13 -128 13 C-128 12.34 -128 11.68 -128 11 C-119.37822712 5.11525187 -111.63822383 4.01777817 -101.484375 3.79296875 C-99.98243499 3.73909527 -98.48058194 3.6827481 -96.9788208 3.62409973 C-93.03264068 3.47661052 -89.08619533 3.36243636 -85.13873291 3.25561523 C-81.23370646 3.14426256 -77.32985939 3.00152566 -73.42578125 2.86132812 C-65.02701827 2.56561309 -56.62733415 2.3100358 -48.22695923 2.06499481 C-42.4833102 1.89736382 -36.73978506 1.72614031 -30.99643707 1.54848671 C-29.09606886 1.49072629 -27.19558798 1.4367095 -25.29510498 1.38285828 C-18.3583945 1.17061689 -11.46244975 0.78010229 -4.54632568 0.20158386 C-2 0 -2 0 0 0 Z M-26.25 20.3125 C-27.11625 21.1478125 -27.11625 21.1478125 -28 22 C-28 22.66 -28 23.32 -28 24 C-28.57975586 24.11335693 -29.15951172 24.22671387 -29.75683594 24.34350586 C-32.20638339 25.06040106 -33.80627958 26.04150261 -35.890625 27.50390625 C-36.59960938 27.99697266 -37.30859375 28.49003906 -38.0390625 28.99804688 C-38.76867187 29.51431641 -39.49828125 30.03058594 -40.25 30.5625 C-40.99507812 31.08263672 -41.74015625 31.60277344 -42.5078125 32.13867188 C-44.3423467 33.42049385 -46.17283032 34.70771234 -48 36 C-47.27415246 40.22604567 -46.00962666 44.20345542 -44.625 48.25 C-44.17308975 49.58460585 -43.72126655 50.91924118 -43.26953125 52.25390625 C-42.85058594 53.49011719 -42.43164062 54.72632813 -42 56 C-41.22147413 58.38813632 -40.44457687 60.77668423 -39.67578125 63.16796875 C-38.93557377 65.17465839 -37.95652605 67.0869479 -37 69 C-27.43 69 -17.86 69 -8 69 C-8.66 63.72 -9.32 58.44 -10 53 C-12.97 52.505 -12.97 52.505 -16 52 C-16.309375 51.030625 -16.61875 50.06125 -16.9375 49.0625 C-17.69523342 46.15934208 -17.69523342 46.15934208 -19 45 C-18.71269945 42.66055264 -18.38063221 40.3260857 -18 38 C-17.01 37.67 -16.02 37.34 -15 37 C-15.54787973 32.39781027 -16.90467364 29.10334745 -19 25 C-19.6875 22.125 -19.6875 22.125 -20 20 C-22.78313821 18.90662428 -23.59946354 18.76635373 -26.25 20.3125 Z M-66 79 C-66 121.24 -66 163.48 -66 207 C-57.75 207 -49.5 207 -41 207 C-38.86488641 198.53038248 -38.86488641 198.53038248 -37 190 C-35.84984549 190.8273591 -34.70524302 191.66243397 -33.5625 192.5 C-32.45841797 193.30244141 -32.45841797 193.30244141 -31.33203125 194.12109375 C-29 196 -29 196 -26.88671875 198.28515625 C-24.68530587 200.63145187 -22.80460073 202.41382771 -20 204 C-8.69986875 204.3448029 3.1499458 195.56056172 11.03515625 188.16015625 C23.00741143 174.99781607 25.9622055 157.28349472 25.15234375 140.08203125 C23.91808074 123.21377018 18.22850039 106.82425087 5.1875 95.4375 C0.69420208 91.81615215 0.69420208 91.81615215 -5 91 C-5.495 89.515 -5.495 89.515 -6 88 C-23.62272714 77.31245255 -46.76854871 79 -66 79 Z M10.3125 212.5 C8.229375 212.995 6.14625 213.49 4 214 C5.32 219.61 6.64 225.22 8 231 C9.65 231.33 11.3 231.66 13 232 C16.20628019 225.26681161 18.04022409 218.17258088 20 211 C16.55877133 211 13.65987197 211.70458488 10.3125 212.5 Z M-66 216 C-66.04581381 224.54744726 -66.08223114 233.09479357 -66.10362434 241.64233208 C-66.11390974 245.61446696 -66.12777633 249.58651109 -66.15087891 253.55859375 C-69.19875281 300.60621446 -69.19875281 300.60621446 -53.078125 341.9609375 C-47.45729523 346.42710069 -41.18267243 349.29581643 -34 350 C-32.91755005 350.25003784 -32.91755005 350.25003784 -31.81323242 350.50512695 C-28.8099374 350.94277807 -26.91019144 350.92663474 -24 350 C-20.2261507 345.97595075 -17.75190769 341.3203637 -15.125 336.5 C-14.38878639 335.21681078 -13.64922884 333.93553399 -12.90625 332.65625 C-10.87621917 329.13587586 -8.93505779 325.57339961 -7 322 C-6.5162793 321.15824219 -6.03255859 320.31648438 -5.53417969 319.44921875 C-4.22715513 317.18851789 -4.22715513 317.18851789 -3 314 C-3.81561657 311.386478 -4.46977583 310.29738446 -6.87295532 308.94952393 C-7.63240448 308.69193298 -8.39185364 308.43434204 -9.17431641 308.16894531 C-10.03505768 307.86893616 -10.89579895 307.568927 -11.78262329 307.25982666 C-13.1779982 306.79863434 -13.1779982 306.79863434 -14.6015625 306.328125 C-15.55316254 306.00084412 -16.50476257 305.67356323 -17.48519897 305.33636475 C-20.52726018 304.29367362 -23.57582276 303.27167113 -26.625 302.25 C-28.68796088 301.54692378 -30.75046743 300.84251294 -32.8125 300.13671875 C-37.86982898 298.40895502 -42.93264835 296.69812779 -48 295 C-44.35446771 291.30615251 -40.64576094 288.11668899 -36.4765625 285.0390625 C-34.66550588 282.99549469 -34.66550588 282.99549469 -35.2097168 279.87231445 C-36.07862074 275.61476566 -37.44641035 271.97283703 -39.16796875 268.00390625 C-39.48526443 267.25270004 -39.80256012 266.50149384 -40.12947083 265.7275238 C-41.14105495 263.33579917 -42.16355742 260.94895658 -43.1875 258.5625 C-47.09112481 249.40920553 -50.98539014 240.25639892 -54.55078125 230.96484375 C-54.8152153 230.29014542 -55.07964935 229.61544708 -55.35209656 228.92030334 C-55.96215392 227.30181843 -56.48937094 225.65254996 -57 224 C-56.67 223.34 -56.34 222.68 -56 222 C-55.14535156 222.01160156 -54.29070312 222.02320313 -53.41015625 222.03515625 C-51.75306641 222.04869141 -51.75306641 222.04869141 -50.0625 222.0625 C-48.40927734 222.07990234 -48.40927734 222.07990234 -46.72265625 222.09765625 C-44.08552366 222.31262571 -44.08552366 222.31262571 -43 221 C-43 219.35 -43 217.7 -43 216 C-50.59 216 -58.18 216 -66 216 Z " fill="#060606" transform="translate(299,70)"/>
<path d="M0 0 C-0.33 13.2 -0.66 26.4 -1 40 C6.26 40 13.52 40 21 40 C19.04041124 43.91917751 16.71736522 46.86019238 13.875 50.125 C12.87000377 51.29463725 11.86610429 52.46521772 10.86328125 53.63671875 C10.37166504 54.21083496 9.88004883 54.78495117 9.37353516 55.37646484 C7.55488347 57.52613312 5.80480997 59.72568335 4.0625 61.9375 C1.7464721 64.87466636 -0.62756987 67.74002163 -3.08984375 70.5546875 C-3.6319751 71.17609619 -4.17410645 71.79750488 -4.73266602 72.43774414 C-5.80412336 73.66083333 -6.88119941 74.87902974 -7.96459961 76.09155273 C-10.72662903 79.24654833 -12.72921587 81.9197112 -14 86 C-11.95401921 87.30042553 -11.95401921 87.30042553 -9.3737793 86.28735352 C-8.28492432 85.90506592 -7.19606934 85.52277832 -6.07421875 85.12890625 C-4.88505859 84.71962891 -3.69589844 84.31035156 -2.47070312 83.88867188 C-1.20932779 83.44749313 0.05173745 83.00542686 1.3125 82.5625 C3.76446647 81.7025868 6.21881942 80.84944093 8.67578125 80.00390625 C9.76802002 79.62049072 10.86025879 79.2370752 11.9855957 78.84204102 C15 78 15 78 20 78 C20 83.28 20 88.56 20 94 C21.93746094 94.54269531 23.87492188 95.08539063 25.87109375 95.64453125 C27.7412241 96.17984737 29.61133067 96.715251 31.48071289 97.25317383 C32.78217094 97.62518136 34.08491494 97.99271997 35.38891602 98.35571289 C37.26128578 98.87775437 39.12879043 99.4171478 40.99609375 99.95703125 C42.68496704 100.43619995 42.68496704 100.43619995 44.40795898 100.92504883 C45.26333252 101.27978271 46.11870605 101.6345166 47 102 C47.33 102.99 47.66 103.98 48 105 C47.52691406 105.40089844 47.05382812 105.80179687 46.56640625 106.21484375 C41.75530155 110.35070568 37.27260796 114.69635511 32.8828125 119.27734375 C31 121 31 121 29 121 C29 121.66 29 122.32 29 123 C28.01 123.66 27.02 124.32 26 125 C26.40828595 129.49114543 28.27082555 131.97156048 31.0390625 135.3515625 C31.35617187 135.89554688 31.67328125 136.43953125 32 137 C31.67 137.99 31.34 138.98 31 140 C23.21189536 141.43630539 15.42344375 142.87070808 7.63453865 144.30266571 C4.01806661 144.96760114 0.40171884 145.63319769 -3.21435547 146.30029297 C-6.70239504 146.9437434 -10.19074715 147.58547308 -13.6793251 148.22599792 C-15.0119269 148.47098707 -16.34441384 148.71660185 -17.67678452 148.96284485 C-19.53926571 149.30695139 -21.40219105 149.64865138 -23.26513672 149.99023438 C-24.32658905 150.18564819 -25.38804138 150.38106201 -26.48165894 150.58239746 C-29 151 -29 151 -31 151 C-31.99 157.27 -32.98 163.54 -34 170 C-37.80215034 169.04946242 -38.92204151 168.51748405 -41.7578125 166.12109375 C-42.46131836 165.53312012 -43.16482422 164.94514648 -43.88964844 164.33935547 C-44.62731445 163.71174316 -45.36498047 163.08413086 -46.125 162.4375 C-47.65322586 161.15705067 -49.18186983 159.8771002 -50.7109375 158.59765625 C-51.44795898 157.97777832 -52.18498047 157.35790039 -52.94433594 156.71923828 C-56.90488761 153.40686241 -60.95516288 150.20849862 -65 147 C-65.85464844 146.27554688 -66.70929688 145.55109375 -67.58984375 144.8046875 C-70.34799739 142.73942497 -71.63909275 142.61589631 -75 143 C-78.07479243 148.20775655 -80.71469113 153.51253461 -83.25 159 C-87.21821647 167.49499667 -91.49121098 175.78098132 -96 184 C-98.64 182.68 -101.28 181.36 -104 180 C-103.42424982 175.51726219 -101.6969563 172.48359104 -99.32421875 168.66796875 C-98.95778763 168.07252762 -98.59135651 167.47708649 -98.21382141 166.86360168 C-97.04539929 164.96712034 -95.86714952 163.0770143 -94.6875 161.1875 C-87.75874903 150.40575178 -87.75874903 150.40575178 -82 139 C-82.63903754 135.93334147 -82.63903754 135.93334147 -84.75270081 135.06977844 C-85.51437057 134.80996689 -86.27604034 134.55015533 -87.06079102 134.2824707 C-87.92160782 133.98238602 -88.78242462 133.68230133 -89.66932678 133.37312317 C-90.60473801 133.06050034 -91.54014923 132.7478775 -92.50390625 132.42578125 C-93.93342873 131.9327375 -93.93342873 131.9327375 -95.39183044 131.42973328 C-98.44503874 130.37953414 -101.50356583 129.34588807 -104.5625 128.3125 C-106.62992769 127.60459646 -108.6969903 126.89562571 -110.76367188 126.18554688 C-115.83827205 124.44461275 -120.91733834 122.71724629 -126 121 C-126 118 -126 118 -123.6640625 115.51953125 C-122.65873726 114.60862148 -121.64533316 113.70656694 -120.625 112.8125 C-120.11710937 112.34908203 -119.60921875 111.88566406 -119.0859375 111.40820312 C-115.27115933 108 -115.27115933 108 -113 108 C-114.91014206 102.05943538 -117.02558222 96.25471481 -119.3984375 90.484375 C-119.71527496 89.70668762 -120.03211243 88.92900024 -120.35855103 88.12774658 C-121.36135029 85.66739205 -122.36790912 83.2086006 -123.375 80.75 C-125.63581884 75.22001072 -127.89073198 69.68773128 -130.12927246 64.14868164 C-130.69496233 62.752737 -131.26356637 61.35796849 -131.83557129 59.96459961 C-132.5789139 58.15187687 -133.30942933 56.33390919 -134.0390625 54.515625 C-134.44592285 53.51305664 -134.8527832 52.51048828 -135.27197266 51.47753906 C-136 49 -136 49 -135 46 C-130.71 46 -126.42 46 -122 46 C-121.67 44.35 -121.34 42.7 -121 41 C-120.34 41 -119.68 41 -119 41 C-118.95101563 39.96101563 -118.90203125 38.92203125 -118.8515625 37.8515625 C-118.44790554 30.08046683 -117.87783799 22.58427772 -116 15 C-111.56560851 15 -109.35342642 17.82042015 -106.1875 20.625 C-105.58357422 21.14707031 -104.97964844 21.66914063 -104.35742188 22.20703125 C-101.34302697 24.83529807 -98.54508436 27.49336145 -95.86328125 30.4609375 C-93.31612459 33.26068128 -93.31612459 33.26068128 -90.42578125 33.09765625 C-87.65417708 31.84351652 -85.53873775 30.36762054 -83.1875 28.4375 C-82.39730469 27.79683594 -81.60710937 27.15617187 -80.79296875 26.49609375 C-80.20128906 26.00238281 -79.60960937 25.50867188 -79 25 C-77.0623752 27.90643721 -76.40226939 29.79438921 -75.5625 33.125 C-74.63116716 36.69510922 -73.63878425 40.198922 -72.4375 43.6875 C-71.04529506 47.74687651 -69.98700072 51.82422771 -69 56 C-67.68 56 -66.36 56 -65 56 C-64.82871582 55.39937744 -64.65743164 54.79875488 -64.48095703 54.17993164 C-63.70373375 51.47172047 -62.91454302 48.76714387 -62.125 46.0625 C-61.85558594 45.11697266 -61.58617187 44.17144531 -61.30859375 43.19726562 C-61.04433594 42.29814453 -60.78007812 41.39902344 -60.5078125 40.47265625 C-60.26691895 39.64000244 -60.02602539 38.80734863 -59.77783203 37.94946289 C-59 36 -59 36 -57 35 C-56.61487488 33.34453404 -56.29227382 31.67435507 -56 30 C-55.4095491 28.00661191 -54.79149079 26.02128101 -54.15234375 24.04296875 C-53.61577148 22.37524414 -53.61577148 22.37524414 -53.06835938 20.67382812 C-52.50858398 18.9480957 -52.50858398 18.9480957 -51.9375 17.1875 C-51.56044922 16.01767578 -51.18339844 14.84785156 -50.79492188 13.64257812 C-49.86573321 10.76091708 -48.93400972 7.88010132 -48 5 C-44.64671289 6.11776237 -44.41688617 6.48392095 -42.73828125 9.37890625 C-42.34189453 10.05244141 -41.94550781 10.72597656 -41.53710938 11.41992188 C-41.13298828 12.12697266 -40.72886719 12.83402344 -40.3125 13.5625 C-39.68891602 14.62887695 -39.68891602 14.62887695 -39.05273438 15.71679688 C-38.02716889 17.47322511 -37.01253329 19.23602691 -36 21 C-33.23723823 20.47731534 -30.6739124 19.89130413 -28 19 C-27.505 17.515 -27.505 17.515 -27 16 C-24.453125 14.3515625 -24.453125 14.3515625 -21.25 12.625 C-16.81456325 10.13465431 -13.45792254 7.76303336 -10 4 C-4.7027027 0 -4.7027027 0 0 0 Z " fill="#FB0101" transform="translate(377,245)"/>
<path d="M0 0 C2.45369798 3.68054697 3.44052033 7.3872336 4.70703125 11.6015625 C5.78587104 14.26855719 5.78587104 14.26855719 8.63671875 14.8359375 C9.41660156 14.89007813 10.19648438 14.94421875 11 15 C11 15.66 11 16.32 11 17 C11.99 17 12.98 17 14 17 C16.61437258 20.92155886 16.21703011 24.44236768 16 29 C15.67 29.99 15.34 30.98 15 32 C13.515 32.495 13.515 32.495 12 33 C10.79117904 35.00016466 10.79117904 35.00016466 10 37 C9.34 37 8.68 37 8 37 C7.67 37.66 7.34 38.32 7 39 C6.67 37.35 6.34 35.7 6 34 C5.071875 33.9175 4.14375 33.835 3.1875 33.75 C0 33 0 33 -1.875 30.9375 C-2.24625 30.298125 -2.6175 29.65875 -3 29 C-2.67 28.34 -2.34 27.68 -2 27 C-2.66 26.67 -3.32 26.34 -4 26 C-3.40138258 23.64828869 -2.73075648 21.3140622 -2 19 C-1.34 18.67 -0.68 18.34 0 18 C-0.32578384 15.99875639 -0.66055205 13.99897128 -1 12 C-1.144375 11.071875 -1.28875 10.14375 -1.4375 9.1875 C-1.7159375 8.1046875 -1.7159375 8.1046875 -2 7 C-2.66 6.67 -3.32 6.34 -4 6 C-4 4.68 -4 3.36 -4 2 C-2.68 2 -1.36 2 0 2 C0 1.34 0 0.68 0 0 Z " fill="#111111" transform="translate(283,89)"/>
<path d="M0 0 C2.475 0.495 2.475 0.495 5 1 C5 3.97 5 6.94 5 10 C6.32 9.67 7.64 9.34 9 9 C5.44446508 16.51471752 5.44446508 16.51471752 3.91772461 19.72998047 C1.67833283 24.44700644 -0.5480695 29.16952292 -2.75390625 33.90234375 C-3.64842157 35.8099033 -4.54295243 37.71745557 -5.4375 39.625 C-5.86208496 40.5430542 -6.28666992 41.4611084 -6.72412109 42.40698242 C-7.12324707 43.25494385 -7.52237305 44.10290527 -7.93359375 44.9765625 C-8.28478271 45.73018066 -8.63597168 46.48379883 -8.99780273 47.26025391 C-10 49 -10 49 -12 50 C-14.4750171 48.88568235 -16.67883419 47.41849022 -19 46 C-18.42424982 41.51726219 -16.6969563 38.48359104 -14.32421875 34.66796875 C-13.95778763 34.07252762 -13.59135651 33.47708649 -13.21382141 32.86360168 C-12.04539929 30.96712034 -10.86714952 29.0770143 -9.6875 27.1875 C-2.75874903 16.40575178 -2.75874903 16.40575178 3 5 C2.2236068 1.9254644 2.2236068 1.9254644 0 0 Z " fill="#EF0606" transform="translate(292,379)"/>
<path d="M0 0 C1.44569025 2.89138051 1.29987963 4.76879699 1 8 C-0.0997775 10.76226498 -1.52230041 13.29901018 -3 15.875 C-3.3815625 16.56335938 -3.763125 17.25171875 -4.15625 17.9609375 C-5.09291108 19.64692745 -6.04493248 21.32436814 -7 23 C-9.64 21.68 -12.28 20.36 -15 19 C-14.45276317 15.62537285 -13.9451 13.91765 -12 11 C-11.01 11 -10.02 11 -9 11 C-8.87625 10.4225 -8.7525 9.845 -8.625 9.25 C-7.39283804 4.81421693 -5.2736845 0 0 0 Z " fill="#EF0708" transform="translate(288,406)"/>
<path d="M0 0 C7.92859922 5.64150329 15.1222353 12.1222353 22 19 C23.31747324 19.69748583 24.64914193 20.36959957 26 21 C22.40048059 21.1999733 19.99348295 21.09543806 17 19 C15.95107762 17.36368108 14.95093297 15.69514137 14 14 C11.94035197 11.58215231 9.96195864 10.16683219 7 9 C5.68 9 4.36 9 3 9 C2.01 10.485 2.01 10.485 1 12 C0.34 12 -0.32 12 -1 12 C-1 15.63 -1 19.26 -1 23 C-1.66 23 -2.32 23 -3 23 C-2.938125 23.70125 -2.87625 24.4025 -2.8125 25.125 C-3.04256101 28.65260212 -4.29200568 30.93984351 -6 34 C-8.97 34 -11.94 34 -15 34 C-15 33.67 -15 33.34 -15 33 C-12.36 32.67 -9.72 32.34 -7 32 C-6.67 30.35 -6.34 28.7 -6 27 C-5.34 27 -4.68 27 -4 27 C-3.95101563 25.96101563 -3.90203125 24.92203125 -3.8515625 23.8515625 C-2.75830677 2.75830677 -2.75830677 2.75830677 0 0 Z " fill="#DC0E0E" transform="translate(262,259)"/>
<path d="M0 0 C0.99 0.33 1.98 0.66 3 1 C-3.4088807 5.99892695 -9.52816603 10.69515036 -17 14 C-17 13.34 -17 12.68 -17 12 C-15.3203125 10.7109375 -15.3203125 10.7109375 -13.125 9.375 C-12.40570313 8.92898437 -11.68640625 8.48296875 -10.9453125 8.0234375 C-9 7 -9 7 -7 7 C-7 6.34 -7 5.68 -7 5 C-5.57421875 3.67578125 -5.57421875 3.67578125 -3.6875 2.3125 C-3.07261719 1.85488281 -2.45773438 1.39726563 -1.82421875 0.92578125 C-0.92123047 0.46751953 -0.92123047 0.46751953 0 0 Z M-20 14 C-19.01 14.33 -18.02 14.66 -17 15 C-17.763125 15.7425 -18.52625 16.485 -19.3125 17.25 C-23.09812423 21.123662 -25.24389184 23.55602121 -26 29 C-28.31 28.67 -30.62 28.34 -33 28 C-32.44804926 23.0324433 -28.88702292 20.55182806 -25.21875 17.53515625 C-23.375 16.125 -23.375 16.125 -20 14 Z " fill="#131313" transform="translate(168,83)"/>
<path d="M0 0 C5.5455797 1.14736132 11.02804173 2.47719212 16.5 3.9375 C17.7065625 4.25589844 18.913125 4.57429688 20.15625 4.90234375 C21.0946875 5.26457031 22.033125 5.62679688 23 6 C23.33 6.99 23.66 7.98 24 9 C21.36 10.98 18.72 12.96 16 15 C16 14.34 16 13.68 16 13 C14.68 12.34 13.36 11.68 12 11 C12 10.34 12 9.68 12 9 C11.34 8.01 10.68 7.02 10 6 C10.33 5.34 10.66 4.68 11 4 C9.948125 4.061875 9.948125 4.061875 8.875 4.125 C5.61628372 3.98331668 3.0440053 3.13265314 0 2 C0 1.34 0 0.68 0 0 Z " fill="#E40C0C" transform="translate(401,341)"/>
<path d="M0 0 C0 1.98 0 3.96 0 6 C-2 3 -2 3 -3 1 C-3.66386719 1.58910156 -4.32773437 2.17820312 -5.01171875 2.78515625 C-6.33623047 3.91244141 -6.33623047 3.91244141 -7.6875 5.0625 C-8.99267578 6.19365234 -8.99267578 6.19365234 -10.32421875 7.34765625 C-13 9 -13 9 -15.71875 8.875 C-18.51127142 7.80389589 -19.45801801 6.51586535 -21 4 C-19.0745964 3.29064078 -17.1490441 2.58168196 -15.22265625 1.875 C-13.20177341 1.07943276 -11.31446847 0.15940366 -9.375 -0.8125 C-5.37832055 -2.21873907 -3.77448517 -1.74915166 0 0 Z " fill="#030103" transform="translate(301,270)"/>
<path d="M0 0 C1.35439668 2.70879335 1.06501451 5.00933268 1 8 C-0.98 8.99 -0.98 8.99 -3 10 C-3 10.99 -3 11.98 -3 13 C-5.64 13.33 -8.28 13.66 -11 14 C-11 13.01 -11 12.02 -11 11 C-10.34 11 -9.68 11 -9 11 C-8.87625 10.4225 -8.7525 9.845 -8.625 9.25 C-7.39283804 4.81421693 -5.2736845 0 0 0 Z " fill="#F60403" transform="translate(288,406)"/>
<path d="M0 0 C0.66 0 1.32 0 2 0 C2.83919398 2.26882087 3.67151724 4.53977027 4.5 6.8125 C4.85771484 7.77639648 4.85771484 7.77639648 5.22265625 8.75976562 C6.27068746 11.64933739 7 13.90076061 7 17 C7.66 17 8.32 17 9 17 C9.33 19.31 9.66 21.62 10 24 C10.66 24 11.32 24 12 24 C12.25523437 24.94359375 12.25523437 24.94359375 12.515625 25.90625 C13.73669394 30.21896156 14.99555331 34.23170305 17.125 38.1875 C19.06735023 41.8275533 19.65842614 44.90111363 20 49 C17.15058137 46.15058137 16.09173951 42.64312456 14.62890625 38.95703125 C14.14441261 37.75429817 14.14441261 37.75429817 13.65013123 36.52726746 C12.6161021 33.95758333 11.58911056 31.38515577 10.5625 28.8125 C9.53797972 26.25831235 8.51202903 23.70470416 7.48558044 21.15129089 C6.8474617 19.56244615 6.21071703 17.97304861 5.57557678 16.38301086 C5.13513283 15.28233528 5.13513283 15.28233528 4.68579102 14.15942383 C4.40559113 13.45886871 4.12539124 12.7583136 3.83670044 12.03652954 C3.02205675 10.05368614 2.15628224 8.09997833 1.28100586 6.14331055 C0 3 0 3 0 0 Z " fill="#D21112" transform="translate(243,297)"/>
<path d="M0 0 C1.65 0.33 3.3 0.66 5 1 C5 3.97 5 6.94 5 10 C6.32 9.67 7.64 9.34 9 9 C7.35 12.63 5.7 16.26 4 20 C3.67 20 3.34 20 3 20 C3 18.35 3 16.7 3 15 C0.11562221 16.29299694 -1.87219421 17.65941363 -4 20 C-2.30731303 15.56563696 -0.17654201 11.47652012 2.07421875 7.3046875 C3.32735577 4.90364011 3.32735577 4.90364011 2 2 C1.34 1.34 0.68 0.68 0 0 Z " fill="#DE1110" transform="translate(292,379)"/>
<path d="M0 0 C0 5.28 0 10.56 0 16 C0.99 16.33 1.98 16.66 3 17 C2.67 17.66 2.34 18.32 2 19 C0.68 18.34 -0.64 17.68 -2 17 C-2 12.05 -2 7.1 -2 2 C-3.65 2.66 -5.3 3.32 -7 4 C-9.8125 4.125 -9.8125 4.125 -12 4 C-12 4.66 -12 5.32 -12 6 C-13.98 6.99 -15.96 7.98 -18 9 C-18.33 8.67 -18.66 8.34 -19 8 C-20.99958364 7.95919217 -23.00045254 7.95745644 -25 8 C-21.36791958 5.57861305 -17.72022852 4.32078169 -13.625 2.875 C-12.86960937 2.59785156 -12.11421875 2.32070313 -11.3359375 2.03515625 C-10.59859375 1.77347656 -9.86125 1.51179688 -9.1015625 1.2421875 C-8.43463379 1.0035498 -7.76770508 0.76491211 -7.08056641 0.51904297 C-5 0 -5 0 0 0 Z " fill="#D11414" transform="translate(397,323)"/>
<path d="M0 0 C0.66 0.66 1.32 1.32 2 2 C1.01 2.99 0.02 3.98 -1 5 C-1.66 4.67 -2.32 4.34 -3 4 C-3.33 4.99 -3.66 5.98 -4 7 C-1.18490007 9.2773501 -1.18490007 9.2773501 2 9 C0.02 11.97 0.02 11.97 -2 15 C-4.87255066 12.57804552 -5.70838919 10.40257297 -6.6875 6.8125 C-6.93886719 5.91144531 -7.19023437 5.01039063 -7.44921875 4.08203125 C-7.63097656 3.39496094 -7.81273437 2.70789063 -8 2 C-5.33333333 2 -2.66666667 2 0 2 C0 1.34 0 0.68 0 0 Z " fill="#101010" transform="translate(160,170)"/>
<path d="M0 0 C2.55803184 3.83704776 4.34505724 7.75712791 3.625 12.4375 C3.41875 12.953125 3.2125 13.46875 3 14 C0.8480563 10.77208445 0.79913557 9.71599191 1 6 C0.34 6 -0.32 6 -1 6 C-1.66 7.32 -2.32 8.64 -3 10 C-3.33 9.01 -3.66 8.02 -4 7 C-5.98 7.66 -7.96 8.32 -10 9 C-6.83047153 5.73991357 -3.60062011 2.77762123 0 0 Z " fill="#CC0C0F" transform="translate(298,270)"/>
<path d="M0 0 C7.26 0 14.52 0 22 0 C20 4 20 4 17 6 C17 4.68 17 3.36 17 2 C11.39 2 5.78 2 0 2 C0 1.34 0 0.68 0 0 Z " fill="#CF1517" transform="translate(376,285)"/>
<path d="M0 0 C-0.33 1.32 -0.66 2.64 -1 4 C-2.11375 3.814375 -3.2275 3.62875 -4.375 3.4375 C-7.82568861 2.68319343 -7.82568861 2.68319343 -10 4 C-12.55807762 3.91089842 -15.0762601 3.76705754 -17.625 3.5625 C-18.33140625 3.51029297 -19.0378125 3.45808594 -19.765625 3.40429688 C-21.51079987 3.27458793 -23.25545725 3.13795046 -25 3 C-24.67 2.34 -24.34 1.68 -24 1 C-21.125109 0.8312433 -18.25011104 0.66492885 -15.375 0.5 C-14.56675781 0.45230469 -13.75851563 0.40460938 -12.92578125 0.35546875 C-8.61012369 0.10986222 -4.32496331 -0.05598658 0 0 Z " fill="#181818" transform="translate(210,74)"/>
<path d="M0 0 C-0.3125 1.9375 -0.3125 1.9375 -1 4 C-1.99 4.33 -2.98 4.66 -4 5 C-4 5.66 -4 6.32 -4 7 C-5.65 6.67 -7.3 6.34 -9 6 C-9.33 4.35 -9.66 2.7 -10 1 C-2.25 0 -2.25 0 0 0 Z " fill="#0F0F0F" transform="translate(299,70)"/>
<path d="M0 0 C3.39417765 3.12621626 5.6062718 5.56541027 7 10 C6 11 6 11 2.9375 11.0625 C1.968125 11.041875 0.99875 11.02125 0 11 C0.33 8.69 0.66 6.38 1 4 C0.34 3.67 -0.32 3.34 -1 3 C-0.67 2.01 -0.34 1.02 0 0 Z " fill="#DF0E0C" transform="translate(402,374)"/>
<path d="M0 0 C6.35227273 0.48863636 6.35227273 0.48863636 9.375 2.875 C11 5 11 5 12 8 C13.40105576 9.42857119 13.40105576 9.42857119 15.0625 10.6875 C16.5165625 11.8321875 16.5165625 11.8321875 18 13 C14.54289844 13 14.02081038 12.51245401 11.42578125 10.41015625 C10.42514648 9.60481445 10.42514648 9.60481445 9.40429688 8.78320312 C8.71400391 8.21537109 8.02371094 7.64753906 7.3125 7.0625 C6.2596582 6.21655273 6.2596582 6.21655273 5.18554688 5.35351562 C1.4194786 2.29747383 1.4194786 2.29747383 0 1 C0 0.67 0 0.34 0 0 Z " fill="#D8120F" transform="translate(314,393)"/>
<path d="M0 0 C0.66 0.33 1.32 0.66 2 1 C0.33333333 2.66666667 -1.33333333 4.33333333 -3 6 C-3.7115625 6.804375 -3.7115625 6.804375 -4.4375 7.625 C-6.74834144 9.65854047 -9.17066765 10.82111152 -12 12 C-12.99 11.67 -13.98 11.34 -15 11 C-10.05 7.37 -5.1 3.74 0 0 Z " fill="#151515" transform="translate(101,130)"/>
<path d="M0 0 C1 2 1 2 0.3125 5 C-1.1921447 8.43918788 -1.79543236 8.49785892 -5 10 C-6.24714403 12.40952023 -6.24714403 12.40952023 -7 15 C-7.33 15.99 -7.66 16.98 -8 18 C-8.66 18 -9.32 18 -10 18 C-8.47146065 13.72813475 -6.28490519 10.00673137 -3.875 6.1875 C-3.50246094 5.59001953 -3.12992187 4.99253906 -2.74609375 4.37695312 C-1.8342952 2.91573749 -0.91764024 1.45755415 0 0 Z " fill="#D51011" transform="translate(287,399)"/>
<path d="M0 0 C1.98 0.66 3.96 1.32 6 2 C6 3.98 6 5.96 6 8 C4 5 4 5 3 3 C0.36 4.98 -2.28 6.96 -5 9 C-5.33 8.34 -5.66 7.68 -6 7 C-5.34 7 -4.68 7 -4 7 C-4 6.34 -4 5.68 -4 5 C-3.34 5 -2.68 5 -2 5 C-1.855625 4.360625 -1.71125 3.72125 -1.5625 3.0625 C-1 1 -1 1 0 0 Z " fill="#2A0000" transform="translate(295,268)"/>
<path d="M0 0 C-0.33 0.99 -0.66 1.98 -1 3 C-1.66 3 -2.32 3 -3 3 C-3.33 3.99 -3.66 4.98 -4 6 C-5.62890625 7.60546875 -5.62890625 7.60546875 -7.5625 9.1875 C-8.20316406 9.71730469 -8.84382812 10.24710938 -9.50390625 10.79296875 C-9.99761719 11.19128906 -10.49132812 11.58960938 -11 12 C-11.66 11.67 -12.32 11.34 -13 11 C-12.525625 10.566875 -12.05125 10.13375 -11.5625 9.6875 C-9.76313043 7.97690387 -9.76313043 7.97690387 -9 5 C-6.9375 3.8125 -6.9375 3.8125 -5 3 C-5 2.34 -5 1.68 -5 1 C-3 0 -3 0 0 0 Z " fill="#151515" transform="translate(174,165)"/>
<path d="M0 0 C0.66 0.33 1.32 0.66 2 1 C2.625 3.0625 2.625 3.0625 3 5 C0.04335481 6.4783226 -2.74229737 6.06032783 -6 6 C-5 3 -5 3 -2.5625 1.25 C-1.716875 0.8375 -0.87125 0.425 0 0 Z " fill="#141414" transform="translate(83,143)"/>
<path d="M0 0 C0.66 0 1.32 0 2 0 C2.08131463 1.43655854 2.13933559 2.8744483 2.1875 4.3125 C2.22230469 5.11300781 2.25710938 5.91351563 2.29296875 6.73828125 C2 9 2 9 0.6875 10.71875 C-1.67360436 12.51144035 -4.1745857 13.1837692 -7 14 C-6.04882866 12.8274869 -5.08882991 11.66212985 -4.125 10.5 C-3.59132813 9.8503125 -3.05765625 9.200625 -2.5078125 8.53125 C-2.01023437 8.0259375 -1.51265625 7.520625 -1 7 C-0.34 7 0.32 7 1 7 C0.67 4.69 0.34 2.38 0 0 Z " fill="#D81213" transform="translate(263,346)"/>
<path d="M0 0 C1.51400391 0.01740234 1.51400391 0.01740234 3.05859375 0.03515625 C4.07050781 0.04417969 5.08242187 0.05320312 6.125 0.0625 C7.29869141 0.07990234 7.29869141 0.07990234 8.49609375 0.09765625 C8.16609375 1.41765625 7.83609375 2.73765625 7.49609375 4.09765625 C5.68359375 4.78515625 5.68359375 4.78515625 3.49609375 5.09765625 C1.99609375 3.72265625 1.99609375 3.72265625 0.49609375 2.09765625 C-1.60723516 1.38317982 -1.60723516 1.38317982 -3.50390625 1.09765625 C-2.50390625 0.09765625 -2.50390625 0.09765625 0 0 Z " fill="#161616" transform="translate(215.50390625,73.90234375)"/>
<path d="M0 0 C0 0.99 0 1.98 0 3 C-0.66 3 -1.32 3 -2 3 C-2 3.99 -2 4.98 -2 6 C-5.6125362 7.84827434 -9.2089881 9.55049545 -13 11 C-9.57933564 5.94336573 -5.08997609 3.16492103 0 0 Z " fill="#DB1012" transform="translate(372,246)"/>
<path d="M0 0 C0.66 0.33 1.32 0.66 2 1 C-3.75 6 -3.75 6 -6 6 C-6 6.66 -6 7.32 -6 8 C-6.99 8 -7.98 8 -9 8 C-9 8.66 -9 9.32 -9 10 C-10.32 9.67 -11.64 9.34 -13 9 C-12.195625 8.731875 -11.39125 8.46375 -10.5625 8.1875 C-9.716875 7.795625 -8.87125 7.40375 -8 7 C-7.67 6.01 -7.34 5.02 -7 4 C-4.78406817 2.28945613 -2.53809348 1.24678276 0 0 Z " fill="#BF0C0F" transform="translate(357,257)"/>
<path d="M0 0 C0.33 0 0.66 0 1 0 C0.85816304 1.75032844 0.71136571 3.50025534 0.5625 5.25 C0.48128906 6.22453125 0.40007812 7.1990625 0.31640625 8.203125 C0.04925416 10.56461753 -0.35371968 12.71901065 -1 15 C-2.875 14.6875 -2.875 14.6875 -5 14 C-5.66 13.01 -6.32 12.02 -7 11 C-4.525 11.495 -4.525 11.495 -2 12 C-1.34 8.04 -0.68 4.08 0 0 Z " fill="#C41719" transform="translate(344,400)"/>
<path d="M0 0 C1.61648438 0.04060547 1.61648438 0.04060547 3.265625 0.08203125 C4.08546875 0.11683594 4.9053125 0.15164063 5.75 0.1875 C5.75 0.5175 5.75 0.8475 5.75 1.1875 C4.02192682 1.52645656 2.29248026 1.85841525 0.5625 2.1875 C-0.88189453 2.4659375 -0.88189453 2.4659375 -2.35546875 2.75 C-5.0434206 3.15627612 -7.53771019 3.26683572 -10.25 3.1875 C-6.86416198 0.05642164 -4.53890538 -0.14800778 0 0 Z " fill="#CB1210" transform="translate(364.25,390.8125)"/>
<path d="M0 0 C0.66 0.33 1.32 0.66 2 1 C1.01 2.98 0.02 4.96 -1 7 C-1.33 6.01 -1.66 5.02 -2 4 C-3.98 4.66 -5.96 5.32 -8 6 C-3.375 1.125 -3.375 1.125 0 0 Z " fill="#E00809" transform="translate(296,273)"/>
<path d="M0 0 C0.33 0.66 0.66 1.32 1 2 C0.34 2 -0.32 2 -1 2 C-1 2.99 -1 3.98 -1 5 C0.65 5 2.3 5 4 5 C3.67 5.66 3.34 6.32 3 7 C-0.24208567 6.64950425 -1.61527704 6.43778819 -3.8125 3.9375 C-4.4003125 2.9784375 -4.4003125 2.9784375 -5 2 C-3.35 1.34 -1.7 0.68 0 0 Z " fill="#2B0001" transform="translate(285,272)"/>
<path d="M0 0 C0.99 0.33 1.98 0.66 3 1 C3 1.66 3 2.32 3 3 C2.01 3.495 2.01 3.495 1 4 C0.21655744 5.99291777 -0.48016365 8.02051823 -1.125 10.0625 C-1.47820312 11.16722656 -1.83140625 12.27195312 -2.1953125 13.41015625 C-2.46085937 14.26480469 -2.72640625 15.11945313 -3 16 C-4.49828872 12.11764181 -3.43110582 9.56550712 -2.0625 5.75 C-1.68222656 4.67234375 -1.30195313 3.5946875 -0.91015625 2.484375 C-0.45962891 1.25460938 -0.45962891 1.25460938 0 0 Z " fill="#BF1015" transform="translate(329,250)"/>
<path d="M0 0 C2.4375 0.75 2.4375 0.75 5 2 C5.8125 4.125 5.8125 4.125 6 6 C4.35 5.67 2.7 5.34 1 5 C0.67 3.35 0.34 1.7 0 0 Z " fill="#151515" transform="translate(289,71)"/>
<path d="M0 0 C0.33 0.66 0.66 1.32 1 2 C0.67 2.99 0.34 3.98 0 5 C2.475 5.99 2.475 5.99 5 7 C3.1875 7.625 3.1875 7.625 1 8 C0.01 7.34 -0.98 6.68 -2 6 C-2.1875 3.375 -2.1875 3.375 -2 1 C-1.34 0.67 -0.68 0.34 0 0 Z " fill="#390302" transform="translate(273,420)"/>
<path d="M0 0 C0.66 0 1.32 0 2 0 C2 0.66 2 1.32 2 2 C2.99 2.33 3.98 2.66 5 3 C4.34 4.98 3.68 6.96 3 9 C0.23776722 6.23776722 0.42143709 3.79293383 0 0 Z " fill="#111111" transform="translate(145,149)"/>
<path d="M0 0 C2.97 1.98 2.97 1.98 6 4 C5.01 4.495 5.01 4.495 4 5 C3.01 4.67 2.02 4.34 1 4 C1 4.66 1 5.32 1 6 C0.34 6 -0.32 6 -1 6 C-1.042721 4.33388095 -1.04063832 2.66617115 -1 1 C-0.67 0.67 -0.34 0.34 0 0 Z " fill="#CB1B1B" transform="translate(262,259)"/>
<path d="M0 0 C0.66 0 1.32 0 2 0 C2 0.99 2 1.98 2 3 C2.66 3 3.32 3 4 3 C4.33 4.65 4.66 6.3 5 8 C2.525 7.01 2.525 7.01 0 6 C0.33 4.68 0.66 3.36 1 2 C0.34 1.67 -0.32 1.34 -1 1 C-0.67 0.67 -0.34 0.34 0 0 Z " fill="#141414" transform="translate(299,125)"/>
<path d="M0 0 C0.82638376 2.89234315 1 4.88742431 1 8 C0.01 8.495 0.01 8.495 -1 9 C-1.66 8.67 -2.32 8.34 -3 8 C-2.45276317 4.62537285 -1.9451 2.91765 0 0 Z " fill="#C21210" transform="translate(276,417)"/>
<path d="M0 0 C0.66 0 1.32 0 2 0 C0.25 5.75 0.25 5.75 -2 8 C-2 7.01 -2 6.02 -2 5 C-2.66 5 -3.32 5 -4 5 C-3.67 4.01 -3.34 3.02 -3 2 C-2.01 2.33 -1.02 2.66 0 3 C0 2.01 0 1.02 0 0 Z " fill="#DB0B0B" transform="translate(285,416)"/>
<path d="M0 0 C-1.485 1.485 -1.485 1.485 -3 3 C-3.33 2.67 -3.66 2.34 -4 2 C-5.99958364 1.95919217 -8.00045254 1.95745644 -10 2 C-5.86678317 -0.75547789 -4.77928863 -1.13193678 0 0 Z " fill="#EC0A0E" transform="translate(382,329)"/>
<path d="M0 0 C2.79872437 2.52788007 4.45773019 4.20411134 5 8 C2 7 2 7 0 4 C0 2.68 0 1.36 0 0 Z " fill="#D30D11" transform="translate(333,255)"/>
<path d="M0 0 C1.65 0 3.3 0 5 0 C5 0.33 5 0.66 5 1 C3.35 1 1.7 1 0 1 C0 0.67 0 0.34 0 0 Z " fill="#000000" transform="translate(292,69)"/>
<path d="" fill="#000000" transform="translate(0,0)"/>
<path d="" fill="#000000" transform="translate(0,0)"/>
<path d="" fill="#000000" transform="translate(0,0)"/>
<path d="" fill="#000000" transform="translate(0,0)"/>
</svg>
